<svg width="19" height="21" viewBox="0 0 19 21" fill="none" xmlns="http://www.w3.org/2000/svg">
<path d="M2.09381 6.76049C1.89388 6.7609 1.71266 6.84852 1.5696 6.99623C1.43631 7.15394 1.36942 7.34962 1.38935 7.55615C1.38949 7.62434 1.93788 14.382 2.249 17.2262C2.44375 18.9717 3.57139 20.0293 5.25964 20.0549C6.55778 20.0813 7.82662 20.0887 9.07593 20.0861C10.4023 20.0834 11.6994 20.0707 12.9584 20.039C14.5899 19.9965 15.7141 18.9152 15.892 17.1981C16.2001 14.3425 16.7109 7.59274 16.7205 7.52453C16.7298 7.31794 16.6631 7.12254 16.5282 6.96538C16.3953 6.81824 16.2039 6.73139 16.003 6.73181L2.09381 6.76049ZM6.96789 0.0346004C6.08137 0.0364286 5.29073 0.656776 5.06336 1.53969L4.90103 2.27206C4.76962 2.86899 4.2536 3.29222 3.65869 3.29345L0.734847 3.29948C0.344742 3.30029 0.0206463 3.62485 0.0214962 4.03699L0.022282 4.41805C0.0231113 4.82017 0.348563 5.15342 0.738669 5.15262L17.3582 5.11834C17.7492 5.11754 18.0733 4.78294 18.0725 4.38083L18.0717 3.99977C18.0709 3.58763 17.7454 3.2644 17.3543 3.26521L14.4305 3.27124C13.8366 3.27246 13.3188 2.85136 13.184 2.25598L13.0294 1.5724C12.7895 0.641312 12.0051 0.0242124 11.1089 0.0260607L6.96789 0.0346004Z" fill="#5ACE47"/>
</svg>